<mxfile host="app.diagrams.net" agent="Mozilla/5.0 (Windows NT 10.0; Win64; x64) AppleWebKit/537.36 (KHTML, like Gecko) Chrome/131.0.0.0 Safari/537.36" version="24.8.8">
  <diagram id="C5RBs43oDa-KdzZeNtuy" name="Page-1">
    <mxGraphModel dx="2231" dy="1157" grid="1" gridSize="10" guides="1" tooltips="1" connect="1" arrows="1" fold="1" page="1" pageScale="1" pageWidth="827" pageHeight="1169" math="0" shadow="0">
      <root>
        <mxCell id="WIyWlLk6GJQsqaUBKTNV-0" />
        <mxCell id="WIyWlLk6GJQsqaUBKTNV-1" parent="WIyWlLk6GJQsqaUBKTNV-0" />
        <mxCell id="WIyWlLk6GJQsqaUBKTNV-7" value="Select a league and see most winner player, players, scores" style="rounded=1;whiteSpace=wrap;html=1;fontSize=12;glass=0;strokeWidth=1;shadow=0;" parent="WIyWlLk6GJQsqaUBKTNV-1" vertex="1">
          <mxGeometry x="62.5" y="460" width="120" height="60" as="geometry" />
        </mxCell>
        <mxCell id="_lgf41R790AIMYamBb9T-33" style="edgeStyle=orthogonalEdgeStyle;rounded=0;orthogonalLoop=1;jettySize=auto;html=1;exitX=0.5;exitY=1;exitDx=0;exitDy=0;" edge="1" parent="WIyWlLk6GJQsqaUBKTNV-1" source="_lgf41R790AIMYamBb9T-86" target="WIyWlLk6GJQsqaUBKTNV-7">
          <mxGeometry relative="1" as="geometry">
            <mxPoint x="122.5" y="370.0000000000002" as="sourcePoint" />
          </mxGeometry>
        </mxCell>
        <mxCell id="_lgf41R790AIMYamBb9T-80" style="edgeStyle=orthogonalEdgeStyle;rounded=0;orthogonalLoop=1;jettySize=auto;html=1;" edge="1" parent="WIyWlLk6GJQsqaUBKTNV-1" source="_lgf41R790AIMYamBb9T-0" target="_lgf41R790AIMYamBb9T-50">
          <mxGeometry relative="1" as="geometry" />
        </mxCell>
        <mxCell id="_lgf41R790AIMYamBb9T-88" style="edgeStyle=orthogonalEdgeStyle;rounded=0;orthogonalLoop=1;jettySize=auto;html=1;entryX=0.5;entryY=0;entryDx=0;entryDy=0;" edge="1" parent="WIyWlLk6GJQsqaUBKTNV-1" source="_lgf41R790AIMYamBb9T-0" target="_lgf41R790AIMYamBb9T-86">
          <mxGeometry relative="1" as="geometry" />
        </mxCell>
        <mxCell id="_lgf41R790AIMYamBb9T-0" value="Launch app" style="ellipse;whiteSpace=wrap;html=1;" vertex="1" parent="WIyWlLk6GJQsqaUBKTNV-1">
          <mxGeometry x="80" y="130" width="85" height="60" as="geometry" />
        </mxCell>
        <mxCell id="_lgf41R790AIMYamBb9T-59" style="edgeStyle=orthogonalEdgeStyle;rounded=0;orthogonalLoop=1;jettySize=auto;html=1;exitX=1;exitY=0.5;exitDx=0;exitDy=0;entryX=0.5;entryY=0;entryDx=0;entryDy=0;" edge="1" parent="WIyWlLk6GJQsqaUBKTNV-1" source="_lgf41R790AIMYamBb9T-50" target="_lgf41R790AIMYamBb9T-53">
          <mxGeometry relative="1" as="geometry">
            <mxPoint x="605" y="130" as="targetPoint" />
            <mxPoint x="320" y="109" as="sourcePoint" />
            <Array as="points">
              <mxPoint x="605" y="160" />
            </Array>
          </mxGeometry>
        </mxCell>
        <mxCell id="_lgf41R790AIMYamBb9T-60" value="NO" style="edgeLabel;html=1;align=center;verticalAlign=middle;resizable=0;points=[];" vertex="1" connectable="0" parent="_lgf41R790AIMYamBb9T-59">
          <mxGeometry x="-0.1258" y="3" relative="1" as="geometry">
            <mxPoint as="offset" />
          </mxGeometry>
        </mxCell>
        <mxCell id="_lgf41R790AIMYamBb9T-79" style="edgeStyle=orthogonalEdgeStyle;rounded=0;orthogonalLoop=1;jettySize=auto;html=1;entryX=0;entryY=0.5;entryDx=0;entryDy=0;" edge="1" parent="WIyWlLk6GJQsqaUBKTNV-1" source="_lgf41R790AIMYamBb9T-50" target="_lgf41R790AIMYamBb9T-95">
          <mxGeometry relative="1" as="geometry">
            <mxPoint x="410" y="330" as="targetPoint" />
            <Array as="points">
              <mxPoint x="364" y="330" />
              <mxPoint x="414" y="330" />
            </Array>
          </mxGeometry>
        </mxCell>
        <mxCell id="_lgf41R790AIMYamBb9T-85" value="Yes" style="edgeLabel;html=1;align=center;verticalAlign=middle;resizable=0;points=[];" vertex="1" connectable="0" parent="_lgf41R790AIMYamBb9T-79">
          <mxGeometry x="-0.5612" relative="1" as="geometry">
            <mxPoint as="offset" />
          </mxGeometry>
        </mxCell>
        <mxCell id="_lgf41R790AIMYamBb9T-92" style="edgeStyle=orthogonalEdgeStyle;rounded=0;orthogonalLoop=1;jettySize=auto;html=1;entryX=1;entryY=0.5;entryDx=0;entryDy=0;" edge="1" parent="WIyWlLk6GJQsqaUBKTNV-1" source="_lgf41R790AIMYamBb9T-50" target="_lgf41R790AIMYamBb9T-94">
          <mxGeometry relative="1" as="geometry">
            <mxPoint x="330" y="330" as="targetPoint" />
            <Array as="points">
              <mxPoint x="364" y="330" />
            </Array>
          </mxGeometry>
        </mxCell>
        <mxCell id="_lgf41R790AIMYamBb9T-50" value="User signed&amp;nbsp;&lt;div&gt;in?&lt;/div&gt;" style="rhombus;whiteSpace=wrap;html=1;shadow=0;fontFamily=Helvetica;fontSize=12;align=center;strokeWidth=1;spacing=6;spacingTop=-4;" vertex="1" parent="WIyWlLk6GJQsqaUBKTNV-1">
          <mxGeometry x="314" y="120" width="100" height="80" as="geometry" />
        </mxCell>
        <mxCell id="_lgf41R790AIMYamBb9T-61" style="edgeStyle=orthogonalEdgeStyle;rounded=0;orthogonalLoop=1;jettySize=auto;html=1;entryX=0.5;entryY=0;entryDx=0;entryDy=0;" edge="1" parent="WIyWlLk6GJQsqaUBKTNV-1" source="_lgf41R790AIMYamBb9T-53" target="_lgf41R790AIMYamBb9T-63">
          <mxGeometry relative="1" as="geometry">
            <mxPoint x="675" y="300" as="targetPoint" />
            <Array as="points">
              <mxPoint x="595" y="270" />
              <mxPoint x="595" y="270" />
            </Array>
          </mxGeometry>
        </mxCell>
        <mxCell id="_lgf41R790AIMYamBb9T-65" style="edgeStyle=orthogonalEdgeStyle;rounded=0;orthogonalLoop=1;jettySize=auto;html=1;entryX=0.5;entryY=0;entryDx=0;entryDy=0;" edge="1" parent="WIyWlLk6GJQsqaUBKTNV-1" source="_lgf41R790AIMYamBb9T-53" target="_lgf41R790AIMYamBb9T-50">
          <mxGeometry relative="1" as="geometry">
            <mxPoint x="320" y="90" as="targetPoint" />
            <Array as="points">
              <mxPoint x="640" y="90" />
              <mxPoint x="364" y="90" />
            </Array>
          </mxGeometry>
        </mxCell>
        <mxCell id="_lgf41R790AIMYamBb9T-53" value="Signin&amp;nbsp; Page" style="rounded=0;whiteSpace=wrap;html=1;" vertex="1" parent="WIyWlLk6GJQsqaUBKTNV-1">
          <mxGeometry x="560" y="190" width="90" height="40" as="geometry" />
        </mxCell>
        <mxCell id="_lgf41R790AIMYamBb9T-72" style="edgeStyle=orthogonalEdgeStyle;rounded=0;orthogonalLoop=1;jettySize=auto;html=1;entryX=0.5;entryY=0;entryDx=0;entryDy=0;" edge="1" parent="WIyWlLk6GJQsqaUBKTNV-1" source="_lgf41R790AIMYamBb9T-63" target="_lgf41R790AIMYamBb9T-69">
          <mxGeometry relative="1" as="geometry" />
        </mxCell>
        <mxCell id="_lgf41R790AIMYamBb9T-128" value="Yes" style="edgeLabel;html=1;align=center;verticalAlign=middle;resizable=0;points=[];" vertex="1" connectable="0" parent="_lgf41R790AIMYamBb9T-72">
          <mxGeometry x="-0.1279" y="-4" relative="1" as="geometry">
            <mxPoint as="offset" />
          </mxGeometry>
        </mxCell>
        <mxCell id="_lgf41R790AIMYamBb9T-132" style="edgeStyle=orthogonalEdgeStyle;rounded=0;orthogonalLoop=1;jettySize=auto;html=1;entryX=1;entryY=0.5;entryDx=0;entryDy=0;exitX=1;exitY=0.5;exitDx=0;exitDy=0;" edge="1" parent="WIyWlLk6GJQsqaUBKTNV-1" source="_lgf41R790AIMYamBb9T-63" target="_lgf41R790AIMYamBb9T-53">
          <mxGeometry relative="1" as="geometry">
            <mxPoint x="730" y="240" as="targetPoint" />
            <mxPoint x="710" y="375" as="sourcePoint" />
            <Array as="points">
              <mxPoint x="750" y="365" />
              <mxPoint x="750" y="210" />
            </Array>
          </mxGeometry>
        </mxCell>
        <mxCell id="_lgf41R790AIMYamBb9T-133" value="No" style="edgeLabel;html=1;align=center;verticalAlign=middle;resizable=0;points=[];" vertex="1" connectable="0" parent="_lgf41R790AIMYamBb9T-132">
          <mxGeometry x="-0.0078" y="6" relative="1" as="geometry">
            <mxPoint x="6" y="-14" as="offset" />
          </mxGeometry>
        </mxCell>
        <mxCell id="_lgf41R790AIMYamBb9T-63" value="Dont have an account?" style="rhombus;whiteSpace=wrap;html=1;shadow=0;fontFamily=Helvetica;fontSize=12;align=center;strokeWidth=1;spacing=6;spacingTop=-4;" vertex="1" parent="WIyWlLk6GJQsqaUBKTNV-1">
          <mxGeometry x="550" y="330" width="90" height="90" as="geometry" />
        </mxCell>
        <mxCell id="_lgf41R790AIMYamBb9T-78" style="edgeStyle=orthogonalEdgeStyle;rounded=0;orthogonalLoop=1;jettySize=auto;html=1;entryX=1;entryY=0.5;entryDx=0;entryDy=0;" edge="1" parent="WIyWlLk6GJQsqaUBKTNV-1" source="_lgf41R790AIMYamBb9T-69" target="_lgf41R790AIMYamBb9T-53">
          <mxGeometry relative="1" as="geometry">
            <mxPoint x="740" y="210" as="targetPoint" />
            <Array as="points">
              <mxPoint x="750" y="490" />
              <mxPoint x="750" y="210" />
            </Array>
          </mxGeometry>
        </mxCell>
        <mxCell id="_lgf41R790AIMYamBb9T-69" value="Signup&amp;nbsp; Page" style="rounded=0;whiteSpace=wrap;html=1;" vertex="1" parent="WIyWlLk6GJQsqaUBKTNV-1">
          <mxGeometry x="560" y="480" width="90" height="40" as="geometry" />
        </mxCell>
        <mxCell id="_lgf41R790AIMYamBb9T-86" value="Main Page" style="rounded=0;whiteSpace=wrap;html=1;" vertex="1" parent="WIyWlLk6GJQsqaUBKTNV-1">
          <mxGeometry x="80" y="310" width="87.5" height="40" as="geometry" />
        </mxCell>
        <mxCell id="_lgf41R790AIMYamBb9T-98" style="edgeStyle=orthogonalEdgeStyle;rounded=0;orthogonalLoop=1;jettySize=auto;html=1;entryX=0.5;entryY=0;entryDx=0;entryDy=0;" edge="1" parent="WIyWlLk6GJQsqaUBKTNV-1" source="_lgf41R790AIMYamBb9T-94" target="_lgf41R790AIMYamBb9T-101">
          <mxGeometry relative="1" as="geometry">
            <mxPoint x="220" y="610" as="targetPoint" />
            <Array as="points">
              <mxPoint x="270" y="510" />
              <mxPoint x="205" y="510" />
            </Array>
          </mxGeometry>
        </mxCell>
        <mxCell id="_lgf41R790AIMYamBb9T-104" style="edgeStyle=orthogonalEdgeStyle;rounded=0;orthogonalLoop=1;jettySize=auto;html=1;entryX=0.5;entryY=0;entryDx=0;entryDy=0;" edge="1" parent="WIyWlLk6GJQsqaUBKTNV-1" source="_lgf41R790AIMYamBb9T-94" target="_lgf41R790AIMYamBb9T-103">
          <mxGeometry relative="1" as="geometry">
            <Array as="points">
              <mxPoint x="270" y="510" />
              <mxPoint x="345" y="510" />
            </Array>
          </mxGeometry>
        </mxCell>
        <mxCell id="_lgf41R790AIMYamBb9T-94" value="My league" style="rounded=0;whiteSpace=wrap;html=1;" vertex="1" parent="WIyWlLk6GJQsqaUBKTNV-1">
          <mxGeometry x="220" y="310" width="100" height="40" as="geometry" />
        </mxCell>
        <mxCell id="_lgf41R790AIMYamBb9T-95" value="Profile" style="rounded=0;whiteSpace=wrap;html=1;" vertex="1" parent="WIyWlLk6GJQsqaUBKTNV-1">
          <mxGeometry x="414" y="312.5" width="96" height="35" as="geometry" />
        </mxCell>
        <mxCell id="_lgf41R790AIMYamBb9T-106" style="edgeStyle=orthogonalEdgeStyle;rounded=0;orthogonalLoop=1;jettySize=auto;html=1;exitX=0.5;exitY=1;exitDx=0;exitDy=0;entryX=0.5;entryY=0;entryDx=0;entryDy=0;" edge="1" parent="WIyWlLk6GJQsqaUBKTNV-1" source="_lgf41R790AIMYamBb9T-103" target="_lgf41R790AIMYamBb9T-107">
          <mxGeometry relative="1" as="geometry">
            <mxPoint x="195" y="800" as="targetPoint" />
            <Array as="points">
              <mxPoint x="345" y="720" />
              <mxPoint x="345" y="720" />
            </Array>
          </mxGeometry>
        </mxCell>
        <mxCell id="_lgf41R790AIMYamBb9T-101" value="Add event" style="rounded=1;whiteSpace=wrap;html=1;" vertex="1" parent="WIyWlLk6GJQsqaUBKTNV-1">
          <mxGeometry x="160" y="620" width="90" height="40" as="geometry" />
        </mxCell>
        <mxCell id="_lgf41R790AIMYamBb9T-116" style="edgeStyle=orthogonalEdgeStyle;rounded=0;orthogonalLoop=1;jettySize=auto;html=1;entryX=0.565;entryY=-0.023;entryDx=0;entryDy=0;entryPerimeter=0;" edge="1" parent="WIyWlLk6GJQsqaUBKTNV-1" target="_lgf41R790AIMYamBb9T-115">
          <mxGeometry relative="1" as="geometry">
            <mxPoint x="345.0588235294117" y="680" as="sourcePoint" />
            <mxPoint x="424" y="770" as="targetPoint" />
            <Array as="points">
              <mxPoint x="345" y="700" />
              <mxPoint x="583" y="700" />
            </Array>
          </mxGeometry>
        </mxCell>
        <mxCell id="_lgf41R790AIMYamBb9T-123" style="edgeStyle=orthogonalEdgeStyle;rounded=0;orthogonalLoop=1;jettySize=auto;html=1;entryX=0.5;entryY=0;entryDx=0;entryDy=0;" edge="1" parent="WIyWlLk6GJQsqaUBKTNV-1" target="_lgf41R790AIMYamBb9T-122">
          <mxGeometry relative="1" as="geometry">
            <mxPoint x="345" y="660" as="sourcePoint" />
            <mxPoint x="68.88000000000011" y="861.3200000000002" as="targetPoint" />
            <Array as="points">
              <mxPoint x="345" y="700" />
              <mxPoint x="85" y="700" />
            </Array>
          </mxGeometry>
        </mxCell>
        <mxCell id="_lgf41R790AIMYamBb9T-103" value="Events details" style="rounded=1;whiteSpace=wrap;html=1;" vertex="1" parent="WIyWlLk6GJQsqaUBKTNV-1">
          <mxGeometry x="300" y="620" width="90" height="40" as="geometry" />
        </mxCell>
        <mxCell id="_lgf41R790AIMYamBb9T-109" style="edgeStyle=orthogonalEdgeStyle;rounded=0;orthogonalLoop=1;jettySize=auto;html=1;entryX=0.5;entryY=0;entryDx=0;entryDy=0;exitX=1;exitY=0.5;exitDx=0;exitDy=0;" edge="1" parent="WIyWlLk6GJQsqaUBKTNV-1" source="_lgf41R790AIMYamBb9T-107" target="_lgf41R790AIMYamBb9T-111">
          <mxGeometry relative="1" as="geometry">
            <mxPoint x="315" y="1000" as="targetPoint" />
          </mxGeometry>
        </mxCell>
        <mxCell id="_lgf41R790AIMYamBb9T-110" value="Yes" style="edgeLabel;html=1;align=center;verticalAlign=middle;resizable=0;points=[];" vertex="1" connectable="0" parent="_lgf41R790AIMYamBb9T-109">
          <mxGeometry x="-0.0926" y="-1" relative="1" as="geometry">
            <mxPoint y="22" as="offset" />
          </mxGeometry>
        </mxCell>
        <mxCell id="_lgf41R790AIMYamBb9T-119" style="edgeStyle=orthogonalEdgeStyle;rounded=0;orthogonalLoop=1;jettySize=auto;html=1;entryX=0.75;entryY=0;entryDx=0;entryDy=0;" edge="1" parent="WIyWlLk6GJQsqaUBKTNV-1" source="_lgf41R790AIMYamBb9T-107" target="_lgf41R790AIMYamBb9T-122">
          <mxGeometry relative="1" as="geometry">
            <mxPoint x="80" y="880" as="targetPoint" />
            <Array as="points">
              <mxPoint x="118" y="790" />
            </Array>
          </mxGeometry>
        </mxCell>
        <mxCell id="_lgf41R790AIMYamBb9T-120" value="No" style="edgeLabel;html=1;align=center;verticalAlign=middle;resizable=0;points=[];" vertex="1" connectable="0" parent="_lgf41R790AIMYamBb9T-119">
          <mxGeometry x="0.4263" y="-1" relative="1" as="geometry">
            <mxPoint y="27" as="offset" />
          </mxGeometry>
        </mxCell>
        <mxCell id="_lgf41R790AIMYamBb9T-107" value="Main team is ready?" style="rhombus;whiteSpace=wrap;html=1;" vertex="1" parent="WIyWlLk6GJQsqaUBKTNV-1">
          <mxGeometry x="297.5" y="750" width="95" height="80" as="geometry" />
        </mxCell>
        <mxCell id="_lgf41R790AIMYamBb9T-108" style="edgeStyle=orthogonalEdgeStyle;rounded=0;orthogonalLoop=1;jettySize=auto;html=1;exitX=0.5;exitY=1;exitDx=0;exitDy=0;" edge="1" parent="WIyWlLk6GJQsqaUBKTNV-1" source="_lgf41R790AIMYamBb9T-107" target="_lgf41R790AIMYamBb9T-107">
          <mxGeometry relative="1" as="geometry" />
        </mxCell>
        <mxCell id="_lgf41R790AIMYamBb9T-111" value="Build teams" style="rounded=0;whiteSpace=wrap;html=1;" vertex="1" parent="WIyWlLk6GJQsqaUBKTNV-1">
          <mxGeometry x="354" y="990" width="120" height="60" as="geometry" />
        </mxCell>
        <mxCell id="_lgf41R790AIMYamBb9T-117" style="edgeStyle=orthogonalEdgeStyle;rounded=0;orthogonalLoop=1;jettySize=auto;html=1;entryX=0.5;entryY=0;entryDx=0;entryDy=0;" edge="1" parent="WIyWlLk6GJQsqaUBKTNV-1" source="_lgf41R790AIMYamBb9T-115" target="_lgf41R790AIMYamBb9T-118">
          <mxGeometry relative="1" as="geometry">
            <mxPoint x="535" y="910" as="targetPoint" />
          </mxGeometry>
        </mxCell>
        <mxCell id="_lgf41R790AIMYamBb9T-115" value="Match end and score input" style="shape=parallelogram;perimeter=parallelogramPerimeter;whiteSpace=wrap;html=1;fixedSize=1;" vertex="1" parent="WIyWlLk6GJQsqaUBKTNV-1">
          <mxGeometry x="510" y="770" width="130" height="60" as="geometry" />
        </mxCell>
        <mxCell id="_lgf41R790AIMYamBb9T-118" value="Winner team players&amp;nbsp;&lt;div&gt;++trophy&lt;/div&gt;" style="rounded=0;whiteSpace=wrap;html=1;" vertex="1" parent="WIyWlLk6GJQsqaUBKTNV-1">
          <mxGeometry x="515" y="890" width="120" height="60" as="geometry" />
        </mxCell>
        <mxCell id="_lgf41R790AIMYamBb9T-124" style="edgeStyle=orthogonalEdgeStyle;rounded=0;orthogonalLoop=1;jettySize=auto;html=1;entryX=0.5;entryY=1;entryDx=0;entryDy=0;" edge="1" parent="WIyWlLk6GJQsqaUBKTNV-1" source="_lgf41R790AIMYamBb9T-122" target="_lgf41R790AIMYamBb9T-107">
          <mxGeometry relative="1" as="geometry">
            <mxPoint x="160" y="840" as="targetPoint" />
          </mxGeometry>
        </mxCell>
        <mxCell id="_lgf41R790AIMYamBb9T-122" value="Players vote for join" style="shape=parallelogram;perimeter=parallelogramPerimeter;whiteSpace=wrap;html=1;fixedSize=1;" vertex="1" parent="WIyWlLk6GJQsqaUBKTNV-1">
          <mxGeometry x="20" y="880" width="130" height="70" as="geometry" />
        </mxCell>
        <mxCell id="_lgf41R790AIMYamBb9T-129" value="Player&lt;div&gt;&lt;br&gt;&lt;/div&gt;" style="shape=umlActor;verticalLabelPosition=bottom;verticalAlign=top;html=1;outlineConnect=0;" vertex="1" parent="WIyWlLk6GJQsqaUBKTNV-1">
          <mxGeometry x="107.5" y="30" width="30" height="60" as="geometry" />
        </mxCell>
      </root>
    </mxGraphModel>
  </diagram>
</mxfile>
